<svg xmlns="http://www.w3.org/2000/svg" width="134" height="45.765" viewBox="0 0 134 45.765" enable-background="new 0 0 134 45.765"><path d="M133.642 27.813c.022-.271.017-.521.01-.747l.014-.222.008-.049c.136-.827.249-1.656.314-2.468.029-.171.009-.325-.062-.461-.178-.578-.212-1.208-.122-1.892.072-.437.117-.854.145-1.298.013-.073-.038-.182-.094-.265-.205-.283-.29-.597-.237-.914l.016-.097c-.009-.227-.062-.459-.166-.652l-.148-.35c-.092-.138-.123-.367-.057-.632l-.012-.202c-.155-.449-.248-.864-.369-1.233l-.082-.338c-.058-.209-.065-.435-.096-.665l-.039-.456c-.008-.226-.04-.456-.114-.692l-.214-.511c-.11-.166-.096-.389.011-.622.073-.162.053-.315-.062-.459-.117-.119-.208-.258-.296-.423-.084-.188-.192-.356-.358-.458l-.055-.084c-.06-.335-.246-.59-.542-.739-.229-.137-.387-.288-.443-.497-.04-.032-.033-.081-.021-.153.017-.372-.133-.721-.396-1.064-.117-.119-.205-.283-.27-.443-.1-.366-.357-.608-.702-.74-.089-.015-.19-.082-.295-.148-.14-.123-.248-.29-.283-.496-.016-.052-.074-.112-.154-.175-.462-.25-.912-.574-1.335-.918-.298-.274-.622-.528-.925-.777l-.205-.133c-.276-.271-.624-.377-1.028-.419-.382-.038-.641-.13-.81-.358l-.125-.07c-.063-.035-.152-.051-.249-.016-.034-.081-.113-.144-.177-.179l-.022-.003c-.035-.056-.121-.096-.184-.131l-.21-.11-.192-.081-.178-.03c-.291-.047-.493-.205-.586-.47l-.077-.088c-.26-.092-.37-.26-.396-.513-.01-.077-.028-.105-.136-.147l-1.376-.801c-.137.002-.249-.016-.312-.051-.602-.374-1.237-.678-1.919-.839l-.407-.168-.21-.109-.147-.074c-1.086-.204-2.182-.359-3.247-.41-.297.002-.55.01-.821-.01-.775-.003-1.544-.055-2.306-.155-.267-.044-.534-.088-.809-.083l-1.825-.025c-.208.015-.391.011-.58.054-.563.083-1.103.167-1.62.257l-.253.009c-1.101.167-2.139.496-3.14 1.029-.379.213-.744.353-1.149.461-.425.079-.829.163-1.271.215-.302.026-.517.089-.667.165l-.158.124-.442.326c-.477.396-.971.765-1.444 1.136-.263.207-.567.405-.854.608-.382.237-.747.526-1.079.87-.301.3-.584.629-.866.957-.294.401-.604.75-.942 1.143l-.485.593c-.085.087-.117.156-.134.252-.08.487-.244.934-.49 1.317-.187.294-.341.542-.482.844-.189.318-.376.612-.582.903-.201.241-.378.487-.498.791-.106.233-.189.468-.253.708-.023.145-.069.287-.16.423-.236.46-.436.977-.568 1.503-.157.548-.287 1.05-.403 1.481-.095.435-.213.738-.374.887-.137.127-.227.412-.292.8.002.125.004.25.051.383.049.257.077.512.104.766-.093.558-.175 1.105-.257 1.65l-.122.783c-.021.272-.017.521-.011.772-.003.149.018.303-.008.449-.012.222.022.428.105.617.062.184.126.344.16.549.034.079.084.188.089.29.075.387.126.77.177 1.151.003.126.027.256.073.388.188.53.35 1.08.461 1.646.045.282.046.558-.003.849l-.021.271c-.021.122.008.227.033.355l.161.551c.097.239.171.477.221.733.123.37.289.748.463 1.075.179.305.286.622.372.936.192.632.271 1.268.235 1.91l.052.233.18.429c.169.503.417.942.694 1.339l.114.144c.318.426.706.84 1.13 1.185.182.153.269.317.264.49-.008.175.031.355.118.521.131.32.373.511.7.613l.103.066c.288.197.576.396.911.574.232.115.336.331.383.588.038.33.185.555.462.675.129.047.259.093.417.094.565.043 1.013.241 1.364.6.114.143.263.217.44.247.4.065.789.203 1.147.388.437.272.935.429 1.474.493l.173.054c.653.331 1.264.656 1.878.957l.17.079c.328.078.663.134.997.188.088.015.178.029.274-.005.633-.095 1.143.139 1.579.686l.268.318.121.095c.081.063.188.105.321.127.615.151 1.225.202 1.827.151.138-.002.292.022.449.049.4.066.771.177 1.15.363.126.072.268.046.391-.009.123-.056.243-.086.362-.116.368-.014.699-.085 1.031-.154.145-.051.26-.057.371-.038.135.021.245.039.387.014.257-.033.536-.063.833-.064.778.004 1.479-.229 2.118-.648l.373-.188c.133-.104.3-.151.464-.174.53-.163 1.07-.249 1.599-.262.251-.009.509-.041.747-.101.093-.01.193-.07.276-.155.14-.152.301-.301.454-.399l.198-.091c.323-.023.596-.152.837-.362.191-.194.464-.323.773-.396l.217-.064c.335-.095.691-.312 1.013-.606.271-.257.556-.458.819-.664.176-.098.346-.168.537-.212.233-.036.428-.104.645-.168.172-.072.362-.115.517-.215.1-.058.18-.12.261-.207l.249-.258.229-.287c.398-.334.693-.733.933-1.22l.159-.273c.336-.519.759-.997 1.275-1.362.127-.079.232-.16.319-.271.219-.214.378-.486.511-.739.05-.167.123-.329.194-.492.047-.143.112-.257.177-.37.042-.118.124-.204.185-.296l.113-.131.183-.416c.051-.169.141-.303.258-.459.223-.237.448-.5.651-.766.174-.221.317-.396.442-.601.186-.295.37-.59.542-.935.061-.091.144-.176.222-.239.603-.6.972-1.312 1.089-2.167.071-.439.147-.901.174-1.347zm-25.454 14.405c-10.15-1.672-17.133-10.996-16.015-21.102.038-.341.084-.685.14-1.026 1.729-10.495 11.636-17.601 22.13-15.875 10.493 1.728 17.602 11.634 15.873 22.13-.071.44-.164.87-.266 1.299-2.298 9.772-11.808 16.229-21.862 14.574z"/><path d="M94.707 20.2c-.04.359-.065.716-.082 1.073l.004-.003c.147-.098.314-.214.903-.515 1.976-1.006 3.747-2.285 5.416-3.482 2.015-1.45 3.856-2.749 5.786-3.56 4.096-1.598 6.887-.893 3.772 2.79-.938 1.01-1.741 2.155-2.36 3.394-.951 1.907-1.432 3.905-1.432 5.875-.003 3.06 1.168 6.03 3.386 8.442 2.022 2.207 4.696 3.697 7.636 4.295 1.6-.561 3.102-1.353 4.463-2.34-.503.063-1.014.097-1.526.097-.389 0-.778-.019-1.169-.057-2.924-.28-5.593-1.601-7.53-3.711-1.819-1.991-2.713-4.312-2.717-6.727 0-1.556.377-3.159 1.165-4.741.931-1.873 2.407-3.532 4.105-4.626 1.59-1.027 3.272-1.535 4.932-1.536.255 0 .51.012.766.038.388.037.774.103 1.156.2.599.149 1.22-.154 1.47-.717.252-.565.06-1.228-.454-1.572-2.124-1.421-4.825-2.312-7.892-2.607-.666-.065-1.335-.096-1.996-.096-2.258.002-4.454.357-6.311 1.071-2.48.959-4.587 2.489-6.733 4.025-1.444 1.04-2.898 2.079-4.397 2.914-.088.378-.169.76-.232 1.148-.052.309-.094.617-.129.928z"/><path d="M40.401 28.415c-.636-.377-1.081-.533-2.509-.906-2.985-.775-3.78-1.279-3.786-2.389-.005-1.014 1.037-1.749 2.463-1.757 1.712-.01 3.208 1.092 3.438 2.549.099.634.227.854.48.854l.349-.032c.475-.004.632-.194.629-.767v-.126c-.036-.698-.07-1.236-.072-1.554-.003-.507.058-.95.183-1.332.094-.253.156-.476.155-.603-.001-.095-.064-.222-.161-.348l-.127-.157c-.064-.095-.191-.158-.286-.157-.127.001-.38.097-.696.257-.316.16-.696.257-1.108.259-.158.001-.317-.029-.475-.06l-1.333-.183c-.476-.093-.952-.121-1.364-.119-1.74.01-3.156.633-4.041 1.664-.329-.848-1.363-1.537-2.438-1.531-.919.005-1.931.549-2.75 1.473-.283.286-.566.637-.882 1.02l-.01-1.807c-.001-.253-.002-.38-.034-.444 0-.063-.096-.158-.191-.189l-.19-.03h-.256c-.317.002-.475.066-1.296.706-.853.638-2.118 1.089-3.006 1.094h-.19l-.191.002-.309.015-.021-3.654c-.005-.952.211-1.999.494-2.443.377-.605.567-.702 2.024-1.026.506-.099.538-.162.536-.637l-.002-.445c-.002-.348-.098-.443-.446-.441l-.919.069c-.571.066-1.49.103-2.663.109-.887.005-1.585.009-2.061-.052l-1.681-.085h-.095c-.349.002-.412.098-.41.446l.003.508c.002.443.193.569.859.565.761.028 1.587.34 1.97.75.415.441.61 1.296.618 2.755l.037 6.689c.017 3.012-.356 4.504-1.427 5.778-1.008 1.21-2.494 1.885-4.174 1.894-1.712.009-3.27-.712-4.164-1.911-.958-1.264-1.316-2.847-1.331-5.699l-.039-6.912c-.014-2.537.427-3.046 2.709-3.217.57-.067.602-.13.599-.7l-.003-.477c-.001-.316-.129-.443-.446-.441h-.063l-1.584.105c-.635.035-1.427.071-2.41.076-1.934.011-4.502-.038-5.612-.127l-.158.001c-.446.001-.54.097-.537.636l.002.349c.001.286.287.474.827.566 1.111.216 1.62.499 1.909 1.099.257.538.388 1.298.393 2.249l.042 7.767c.017 2.948.757 4.878 2.573 6.581 1.689 1.575 3.564 2.264 6.195 2.248 2.821-.016 4.972-.916 6.453-2.636 1.512-1.814 2.04-3.784 2.019-7.588l-.007-1.377c.187.044.438.088.754.131.729.092 1.177.628 1.244 1.421.033.284.036.665.038 1.142l.023 4.185c.01 1.871-.367 2.442-1.888 2.8-.443.129-.537.226-.535.573l.002.381c.002.38.098.507.542.504l.253-.001c1.046-.133 1.68-.167 2.98-.174.982-.006 2.283.019 3.076.045l1.396.088.253-.002c.571-.003.729-.13.758-.511l.03-.381c-.002-.412-.193-.569-.733-.662-1.238-.184-1.746-.402-2.035-.971-.256-.443-.321-.664-.327-1.805l-.02-3.52c-.012-2.22.552-3.365 1.63-3.37.349-.003.699.153.921.406.064.062.224.252.447.568.288.348.574.536.795.535.304-.002.692-.229 1.14-.666l-.02.437c.007 1.204.488 2.216 1.379 2.907.828.662 1.654 1.007 3.528 1.535 2.541.715 3.177 1.188 3.184 2.391.006 1.144-.973 1.812-2.653 1.822-2.125.013-3.812-1.184-4.011-2.83-.1-.888-.196-1.078-.608-1.075l-.159.032-.25.066c-.412.098-.632.384-.628.955v.095l.136 1.743c.033.316-.028.697-.153 1.078-.156.381-.218.667-.217.857 0 .159.097.349.256.442l.223.157c.095.062.191.095.286.094.126-.001.253-.064.379-.161l.315-.255c.126-.096.284-.16.506-.161.159 0 .349.029.571.061l1.111.246c.889.187 1.746.276 2.379.272 3.234-.018 5.632-2.06 5.616-4.85-.007-1.489-.647-2.626-1.919-3.348zm40.815 5.308l-2.345.046c-2.568.015-3.68-.329-3.684-1.09-.003-.476.533-.858 1.326-.99l1.615-.262c3.77-.593 5.052-2.29 5.037-4.922-.004-.729-.07-1.999.496-1.999.568 0 1.755-.284 1.942-.824.124-.382.217-.858.215-1.175-.003-.539-.227-.887-.543-.885-.089 0-1.571.37-3.281.365-1.328-.005-2.696-.283-4.301-.354-3.446-.154-6.324 1.89-6.649 4.583-1.08-2.772-3.762-4.552-7.189-4.533-4.818.027-8.289 3.215-8.265 7.527.011 2.084.8 3.866 2.125 5.146-.847-.427-1.71-1.115-2.359-1.906l-4.405-5.302 1.704-1.531c1.419-1.308 2.273-1.725 4.11-1.957.54-.065.697-.225.694-.669l-.002-.348c-.002-.349-.225-.506-.732-.503l-.412.034c-1.299.134-2.472.204-3.422.209-.444.002-.856.004-1.173-.025-.635-.06-1.047-.09-1.301-.088-.412.002-.601.162-.599.543l.002.38c.001.317.224.474.668.502.666.029.92.186.922.566.002.381-.47.986-1.417 1.816-.631.51-1.041.829-1.99 1.404-.157.096-.41.256-.758.448l-.047-8.623c-.015-2.632.044-3.425.292-4.25.095-.223.125-.413.125-.54-.001-.222-.097-.349-.288-.442l-.222-.125c-.127-.032-.223-.063-.318-.062-.19.001-.38.065-.538.225l-.694.669c-.694.669-1.706 1.119-2.688 1.156l-1.173.039c-.476.002-.697.162-.695.479l.002.38c.002.381.162.507.891.63.984.122 1.431.625 1.531 1.671.035.571.071 1.395.078 2.505l.056 10.208c.009 1.586-.084 2.03-.431 2.412-.284.287-.663.448-1.265.514-.634.068-.76.195-.757.64l.001.316c.002.317.161.442.573.44.317-.002.729-.004 1.269-.038 1.045-.069 1.774-.104 2.092-.106l2.314.082c.761.027 1.173.025 1.237.024h.126c.349-.002.507-.13.505-.448l-.003-.442c0-.191-.097-.317-.192-.381-.064-.062-.35-.155-.826-.311-.635-.188-.924-.787-.931-1.898l-.022-4.058 3.734 4.481c.415.473.703.979.704 1.201.002.254-.125.349-.536.51-.349.129-.538.351-.536.605l.001.285c.002.35.193.443.7.44l.158-.001c.318-.034.951-.069 1.902-.105.507-.035.888-.036 1.109-.038l.286-.002 2.854.11.666-.002c.634-.005.729-.037.727-.448l-.001-.276c1.232.733 2.736 1.144 4.412 1.134 4.692-.025 8.162-3.215 8.138-7.496l-.012-.225c.152.279.323.548.538.789.542.599 1.05.945 2.259 1.541-1.137.862-1.516 1.086-3.382 1.826-.125.443-.156.634-.155.92.007 1.142.678 2.025 2.045 2.684-1.518.705-1.96.993-2.464 1.631-.347.382-.534.859-.531 1.366.012 2.124 2.936 3.63 6.995 3.606 5.104-.028 9.116-2.649 9.098-5.946-.009-2.189-1.76-3.479-4.74-3.462zm-17.256 1.178c-2.537.014-4.485-2.796-4.506-6.443-.017-3.074 1.525-5.176 3.808-5.189 2.505-.014 4.486 2.829 4.505 6.444.018 3.106-1.524 5.176-3.807 5.188zm13.425-11.841c1.616-.009 2.861 1.601 2.873 3.663.011 1.934-1.123 3.335-2.676 3.344-1.648.009-2.83-1.476-2.841-3.599-.012-1.998 1.09-3.4 2.644-3.408zm.102 18.453c-2.441.014-4.414-1.023-4.421-2.323-.005-.919.468-1.397 2.112-2.167.889.09 1.238.088 1.84.085l.635-.004 2.122-.074.222-.001c1.776-.01 2.667.46 2.672 1.411.009 1.649-2.36 3.056-5.182 3.073z"/></svg>