<?xml version="1.0" encoding="utf-8"?>
<!-- Generator: Adobe Illustrator 15.0.0, SVG Export Plug-In  -->
<!DOCTYPE svg PUBLIC "-//W3C//DTD SVG 1.1//EN" "http://www.w3.org/Graphics/SVG/1.1/DTD/svg11.dtd" [
	<!ENTITY ns_flows "http://ns.adobe.com/Flows/1.0/">
]>
<svg version="1.1"
	 xmlns="http://www.w3.org/2000/svg" xmlns:xlink="http://www.w3.org/1999/xlink" xmlns:a="http://ns.adobe.com/AdobeSVGViewerExtensions/3.0/"
	 x="0px" y="0px" width="150px" height="51px" viewBox="0 0 150 51" overflow="visible" enable-background="new 0 0 150 51"
	 xml:space="preserve">
<defs>
</defs>
<path d="M149.3945312,31.0927734c0.0253906-0.3027344,0.0195312-0.5830078,0.0117188-0.8359375
	c-0.0058594-0.0898438,0.0039062-0.1757812,0.015625-0.2480469c0.0029297-0.0185547,0.0058594-0.0390625,0.0078125-0.0546875
	c0.1523438-0.9238281,0.2792969-1.8515625,0.3515625-2.7592773c0.0322266-0.1899414,0.0097656-0.3618164-0.0683594-0.5141602
	c-0.1992188-0.6464844-0.2373047-1.3500977-0.1367188-2.1152344c0.0800781-0.4882812,0.1308594-0.9545898,0.1621094-1.4516602
	c0.0136719-0.081543-0.0429688-0.2026367-0.1054688-0.2958984c-0.2285156-0.3164062-0.3242188-0.6674805-0.265625-1.0209961
	l0.0175781-0.1083984c-0.0097656-0.253418-0.0693359-0.5136719-0.1855469-0.7290039
	c-0.0576172-0.1206055-0.0898438-0.2363281-0.1660156-0.3901367c-0.1025391-0.1547852-0.1376953-0.4111328-0.0625-0.7070312
	c0.0126953-0.081543-0.0029297-0.1386719-0.0146484-0.2255859c-0.1728516-0.5019531-0.2753906-0.9663086-0.4111328-1.3789062
	c-0.0273438-0.1435547-0.0849609-0.265625-0.0917969-0.3774414c-0.0644531-0.2338867-0.0732422-0.4868164-0.1074219-0.7436523
	c-0.0234375-0.1704102-0.0253906-0.3105469-0.0439453-0.5092773c-0.0087891-0.2524414-0.0439453-0.5092773-0.1279297-0.7744141
	c-0.0732422-0.1801758-0.1464844-0.3583984-0.2392578-0.5708008c-0.1220703-0.1850586-0.1064453-0.4345703,0.0126953-0.6943359
	c0.0820312-0.1816406,0.0585938-0.3525391-0.0683594-0.5131836c-0.1318359-0.1333008-0.2333984-0.2885742-0.3310547-0.4731445
	c-0.09375-0.2099609-0.2158203-0.3979492-0.4013672-0.512207c-0.0449219-0.0356445-0.0410156-0.0634766-0.0605469-0.0932617
	c-0.0664062-0.3745117-0.2753906-0.659668-0.6054688-0.8256836c-0.2558594-0.152832-0.4326172-0.3227539-0.4960938-0.5561523
	c-0.0449219-0.0356445-0.0371094-0.0898438-0.0234375-0.1708984c0.0175781-0.4160156-0.1484375-0.8056641-0.4423828-1.1894531
	c-0.1318359-0.1328125-0.2294922-0.315918-0.3017578-0.4951172c-0.1113281-0.409668-0.3994141-0.6801758-0.7841797-0.8276367
	c-0.0996094-0.0161133-0.2138672-0.0908203-0.3310547-0.1655273c-0.1552734-0.137207-0.2773438-0.3242188-0.3164062-0.5541992
	c-0.0166016-0.0585938-0.0820312-0.1254883-0.171875-0.1958008c-0.5166016-0.2802734-1.0195312-0.6416016-1.4921875-1.0263672
	c-0.3339844-0.3066406-0.6953125-0.5898438-1.0332031-0.8681641c-0.0888672-0.0703125-0.1601562-0.1103516-0.2304688-0.1489258
	c-0.3085938-0.3022461-0.6972656-0.421875-1.1494141-0.46875c-0.4267578-0.0424805-0.7158203-0.1459961-0.9042969-0.4003906
	c-0.0205078-0.0302734-0.0957031-0.043457-0.140625-0.0786133c-0.0703125-0.0395508-0.1699219-0.0566406-0.2783203-0.0175781
	c-0.0371094-0.0898438-0.1269531-0.1601562-0.1972656-0.2001953l-0.0244141-0.003418
	c-0.0400391-0.0629883-0.1357422-0.1064453-0.2060547-0.1459961s-0.1650391-0.0825195-0.234375-0.1230469
	c-0.0712891-0.0390625-0.1464844-0.0512695-0.2148438-0.0898438l-0.1992188-0.0332031
	c-0.3242188-0.0527344-0.5507812-0.2299805-0.6552734-0.5263672c-0.0205078-0.0317383-0.0400391-0.0629883-0.0859375-0.0981445
	c-0.2900391-0.1030273-0.4130859-0.2910156-0.4423828-0.5737305c-0.0107422-0.0864258-0.03125-0.1176758-0.1523438-0.1650391
	c-0.5097656-0.3076172-1.0263672-0.5878906-1.5380859-0.8955078c-0.1533203,0.0024414-0.2792969-0.0175781-0.3486328-0.0576172
	c-0.671875-0.4174805-1.3828125-0.7578125-2.1445312-0.9379883c-0.1445312-0.0517578-0.2851562-0.1308594-0.4550781-0.1875
	c-0.0693359-0.0390625-0.1445312-0.0517578-0.2353516-0.1220703c-0.0205078-0.0307617-0.0908203-0.0708008-0.1650391-0.0830078
	c-1.2138672-0.2280273-2.4375-0.4018555-3.6298828-0.4580078c-0.3320312,0.0019531-0.6142578,0.0107422-0.9179688-0.0117188
	c-0.8671875-0.0029297-1.7255859-0.0610352-2.5761719-0.1728516c-0.2988281-0.0493164-0.5976562-0.0986328-0.9052734-0.0932617
	C122.3720703,0,121.6777344,0.0249023,121.0175781,0c-0.2324219,0.0170898-0.4365234,0.012207-0.6484375,0.0605469
	c-0.6289062,0.0917969-1.2324219,0.1870117-1.8105469,0.2875977c-0.0996094-0.0161133-0.203125-0.0048828-0.2832031,0.0097656
	c-1.2304688,0.1875-2.390625,0.5546875-3.5097656,1.1508789c-0.4228516,0.2382812-0.8320312,0.394043-1.2851562,0.5151367
	c-0.4746094,0.0883789-0.9257812,0.1821289-1.4199219,0.2402344c-0.3369141,0.0292969-0.578125,0.1000977-0.7460938,0.184082
	c-0.0341797,0.050293-0.0878906,0.0693359-0.1757812,0.1386719c-0.1464844,0.1142578-0.3476562,0.2495117-0.4941406,0.3647461
	c-0.5332031,0.4423828-1.0859375,0.8544922-1.6152344,1.269043c-0.2929688,0.230957-0.6347656,0.453125-0.9550781,0.6796875
	c-0.4277344,0.2646484-0.8359375,0.5878906-1.2070312,0.9726562c-0.3359375,0.3354492-0.6523438,0.7026367-0.9677734,1.0688477
	c-0.3291016,0.4482422-0.6748047,0.8378906-1.0537109,1.277832c-0.1640625,0.2236328-0.3789062,0.4404297-0.5429688,0.6630859
	c-0.09375,0.097168-0.1308594,0.1743164-0.1494141,0.2827148c-0.0888672,0.5439453-0.2734375,1.043457-0.5488281,1.472168
	c-0.2080078,0.3286133-0.3798828,0.6064453-0.5380859,0.9438477c-0.2119141,0.3554688-0.4199219,0.684082-0.6513672,1.0092773
	c-0.2236328,0.269043-0.421875,0.5449219-0.5556641,0.8847656c-0.1191406,0.2597656-0.2128906,0.5224609-0.2832031,0.7905273
	c-0.0263672,0.1625977-0.078125,0.3217773-0.1796875,0.4731445c-0.2636719,0.5146484-0.4863281,1.0917969-0.6347656,1.6806641
	c-0.1757812,0.6123047-0.3203125,1.1738281-0.4511719,1.6552734c-0.1054688,0.4858398-0.2382812,0.8256836-0.4179688,0.9921875
	c-0.1523438,0.1416016-0.2539062,0.4599609-0.3261719,0.8945312c0.0019531,0.1391602,0.0039062,0.2797852,0.0566406,0.4277344
	c0.0546875,0.2875977,0.0859375,0.5722656,0.1152344,0.855957c-0.1035156,0.6240234-0.1943359,1.2353516-0.2871094,1.8452148
	c-0.0439453,0.2924805-0.0878906,0.5849609-0.1357422,0.875c-0.0244141,0.3041992-0.0185547,0.5830078-0.0126953,0.862793
	c-0.0029297,0.1669922,0.0195312,0.3388672-0.0078125,0.5019531c-0.0136719,0.2480469,0.0244141,0.4780273,0.1171875,0.6884766
	c0.0683594,0.2060547,0.1416016,0.3857422,0.1796875,0.6147461c0.0371094,0.0893555,0.09375,0.2104492,0.0996094,0.3237305
	c0.0830078,0.4321289,0.140625,0.8598633,0.1972656,1.2875977c0.0029297,0.140625,0.0302734,0.2851562,0.0820312,0.4326172
	c0.2089844,0.5927734,0.3896484,1.2080078,0.5146484,1.8417969c0.0498047,0.3154297,0.0507812,0.6230469-0.0029297,0.9482422
	c-0.0126953,0.0820312-0.0097656,0.2216797-0.0234375,0.3027344c-0.0224609,0.1367188,0.0087891,0.2539062,0.0371094,0.3974609
	c0.0673828,0.2060547,0.1103516,0.4091797,0.1796875,0.6162109c0.1083984,0.2675781,0.1923828,0.5332031,0.2470703,0.8203125
	c0.1376953,0.4140625,0.3232422,0.8359375,0.5185547,1.2011719c0.1992188,0.3408203,0.3193359,0.6953125,0.4160156,1.0458984
	c0.2148438,0.7060547,0.3027344,1.4169922,0.2617188,2.1357422c0.015625,0.0585938,0.0263672,0.1445312,0.0585938,0.2607422
	c0.0771484,0.1523438,0.125,0.3271484,0.2011719,0.4794922c0.1884766,0.5625,0.4658203,1.0527344,0.7753906,1.4960938
	c0.0410156,0.0615234,0.0830078,0.1230469,0.1279297,0.1601562c0.3564453,0.4765625,0.7900391,0.9394531,1.2636719,1.3242188
	c0.2021484,0.171875,0.2998047,0.3554688,0.2939453,0.5488281c-0.0078125,0.1953125,0.0351562,0.3974609,0.1328125,0.5820312
	c0.1464844,0.3574219,0.4169922,0.5703125,0.7822266,0.6855469c0.0498047,0.0078125,0.0947266,0.0439453,0.1152344,0.0742188
	c0.3212891,0.2207031,0.6435547,0.4414062,1.0185547,0.6416016c0.2597656,0.1279297,0.3740234,0.3701172,0.4277344,0.6572266
	c0.0419922,0.3691406,0.2060547,0.6191406,0.515625,0.7539062c0.1445312,0.0527344,0.2890625,0.1044922,0.4667969,0.1054688
	c0.6318359,0.0478516,1.1318359,0.2695312,1.5253906,0.6689453c0.1279297,0.1611328,0.2929688,0.2431641,0.4912109,0.2763672
	c0.4482422,0.0742188,0.8818359,0.2285156,1.2832031,0.4335938c0.4873047,0.3046875,1.0449219,0.4804688,1.6474609,0.5517578
	c0.0742188,0.0117188,0.1484375,0.0224609,0.1933594,0.0605469c0.7304688,0.3701172,1.4121094,0.7333984,2.0986328,1.0693359
	c0.0742188,0.0117188,0.1435547,0.0517578,0.1904297,0.0878906c0.3671875,0.0878906,0.7412109,0.1494141,1.1142578,0.2099609
	c0.0996094,0.0166016,0.1982422,0.0332031,0.3076172-0.0048828c0.7070312-0.1064453,1.2773438,0.1552734,1.7646484,0.765625
	c0.0810547,0.125,0.1923828,0.2265625,0.2988281,0.3564453c0.0449219,0.0351562,0.0849609,0.0966797,0.1357422,0.1054688
	c0.0908203,0.0712891,0.2109375,0.1181641,0.359375,0.1425781c0.6875,0.1689453,1.3691406,0.2255859,2.0419922,0.1689453
	c0.1542969-0.0029297,0.3271484,0.0253906,0.5029297,0.0546875c0.4472656,0.0742188,0.8613281,0.1972656,1.2861328,0.40625
	c0.140625,0.0800781,0.2988281,0.0507812,0.4365234-0.0107422s0.2714844-0.0947266,0.4042969-0.1289062
	c0.4111328-0.0166016,0.7822266-0.0947266,1.1523438-0.1728516c0.1621094-0.0566406,0.2910156-0.0634766,0.4160156-0.0429688
	c0.1503906,0.0234375,0.2734375,0.0439453,0.4316406,0.015625c0.2871094-0.0371094,0.5996094-0.0703125,0.9316406-0.0712891
	c0.8691406,0.0039062,1.6533203-0.2568359,2.3681641-0.7255859c0.1376953-0.0615234,0.2802734-0.1494141,0.4169922-0.2099609
	c0.1484375-0.1162109,0.3349609-0.1689453,0.5175781-0.1943359c0.5927734-0.1816406,1.1972656-0.2783203,1.7871094-0.2919922
	c0.28125-0.0097656,0.5693359-0.0458984,0.8359375-0.1132812c0.1035156-0.0107422,0.2158203-0.0771484,0.3085938-0.1728516
	c0.15625-0.1699219,0.3359375-0.3359375,0.5078125-0.4462891c0.0585938-0.0458984,0.1386719-0.0595703,0.2216797-0.1025391
	c0.3613281-0.0253906,0.6660156-0.1699219,0.9345703-0.4042969c0.2148438-0.2167969,0.5195312-0.3613281,0.8652344-0.4433594
	c0.0839844-0.0429688,0.1582031-0.0292969,0.2421875-0.0722656c0.375-0.1054688,0.7724609-0.3476562,1.1328125-0.6777344
	c0.3027344-0.2871094,0.6210938-0.5117188,0.9150391-0.7421875c0.1962891-0.1083984,0.3876953-0.1875,0.6005859-0.2363281
	c0.2617188-0.0410156,0.4785156-0.1171875,0.7207031-0.1884766c0.1923828-0.0800781,0.4052734-0.1289062,0.5771484-0.2392578
	c0.1123047-0.0654297,0.2011719-0.1347656,0.2919922-0.2324219c0.0888672-0.0683594,0.1855469-0.1923828,0.2783203-0.2880859
	c0.0712891-0.1279297,0.1601562-0.1962891,0.2568359-0.3212891c0.4453125-0.3730469,0.7744141-0.8203125,1.0429688-1.3623047
	c0.0429688-0.1044922,0.109375-0.2050781,0.1767578-0.3056641c0.3759766-0.5800781,0.8486328-1.1152344,1.4267578-1.5234375
	c0.1416016-0.0878906,0.2597656-0.1796875,0.3564453-0.3037109c0.2441406-0.2392578,0.421875-0.5439453,0.5712891-0.8271484
	c0.0556641-0.1855469,0.1367188-0.3671875,0.2167969-0.5488281c0.0527344-0.1591797,0.125-0.2871094,0.1972656-0.4140625
	c0.046875-0.1328125,0.1386719-0.2285156,0.2060547-0.3300781c0.0595703-0.0449219,0.0927734-0.0957031,0.1269531-0.1464844
	c0.0771484-0.1542969,0.1240234-0.2851562,0.2050781-0.4667969c0.0556641-0.1875,0.1572266-0.3378906,0.2880859-0.5117188
	c0.2480469-0.265625,0.5009766-0.5595703,0.7285156-0.8564453c0.1933594-0.2470703,0.3535156-0.4433594,0.4941406-0.671875
	c0.2070312-0.3291016,0.4140625-0.6582031,0.6054688-1.0439453c0.0683594-0.1015625,0.1601562-0.1962891,0.2480469-0.2666016
	c0.6728516-0.6708984,1.0859375-1.4677734,1.2167969-2.4228516
	C149.2802734,32.1064453,149.3652344,31.5898438,149.3945312,31.0927734z M120.9414062,47.1943359
	c-11.3476562-1.8691406-19.1523438-12.2919922-17.9023438-23.5898438c0.0429688-0.3813477,0.09375-0.7646484,0.15625-1.1474609
	C105.1269531,10.7255859,116.203125,2.78125,127.9335938,4.7119141s19.6757812,13.0058594,17.7441406,24.7373047
	c-0.0800781,0.4931641-0.1835938,0.9736328-0.296875,1.4521484
	C142.8105469,41.8261719,132.1806641,49.0439453,120.9414062,47.1943359z"/>
<path d="M105.8710938,22.581543c-0.0449219,0.4008789-0.0742188,0.800293-0.0927734,1.1992188
	c0.0009766-0.0009766,0.0048828-0.0029297,0.0048828-0.0039062c0.1640625-0.1088867,0.3515625-0.2387695,1.0097656-0.5756836
	c2.2080078-1.1245117,4.1894531-2.5537109,6.0546875-3.8925781c2.2519531-1.6201172,4.3105469-3.0722656,6.46875-3.9785156
	c4.578125-1.7871094,7.6972656-0.9980469,4.2167969,3.1191406c-1.0488281,1.1289062-1.9472656,2.4082031-2.6386719,3.7929688
	c-1.0634766,2.1318359-1.6005859,4.3657227-1.6005859,6.5673828c-0.0029297,3.4189453,1.3056641,6.7402344,3.7851562,9.4375
	c2.2607422,2.4667969,5.2490234,4.1328125,8.5361328,4.8007812c1.7871094-0.6269531,3.4667969-1.5117188,4.9882812-2.6152344
	c-0.5625,0.0703125-1.1328125,0.1074219-1.7070312,0.1074219c-0.4335938,0-0.8701172-0.0205078-1.3066406-0.0625
	c-3.2675781-0.3134766-6.2509766-1.7890625-8.4169922-4.1494141c-2.0341797-2.2255859-3.0332031-4.8193359-3.0371094-7.5185547
	c0-1.7397461,0.4208984-3.5317383,1.3017578-5.300293c1.0410156-2.0932617,2.6914062-3.9487305,4.5898438-5.1713867
	c1.7773438-1.1484375,3.6582031-1.7158203,5.5126953-1.7167969c0.2851562,0,0.5703125,0.0136719,0.8564453,0.0415039
	c0.4335938,0.0415039,0.8652344,0.1157227,1.2929688,0.2231445c0.6679688,0.1669922,1.3623047-0.171875,1.6425781-0.8017578
	c0.28125-0.6313477,0.0664062-1.3730469-0.5078125-1.7573242c-2.375-1.5893555-5.3935547-2.5849609-8.8222656-2.9145508
	c-0.7441406-0.0727539-1.4921875-0.1064453-2.2304688-0.1074219c-2.5244141,0.0029297-4.9794922,0.3994141-7.0546875,1.1967773
	c-2.7734375,1.0722656-5.1279297,2.7822266-7.5273438,4.5c-1.6152344,1.1625977-3.2402344,2.3237305-4.9160156,3.2568359
	c-0.0986328,0.4228516-0.1894531,0.8491211-0.2597656,1.2836914
	C105.9570312,21.8886719,105.9101562,22.2333984,105.8710938,22.581543z"/>
<path d="M45.1635742,31.7646484c-0.7109375-0.421875-1.2080078-0.5966797-2.8051758-1.0136719
	c-3.3364258-0.8671875-4.2255859-1.4296875-4.2324219-2.6699219c-0.0063477-1.1337891,1.1591797-1.9550781,2.7539062-1.9638672
	c1.9135742-0.0107422,3.5859375,1.2207031,3.8432617,2.8496094c0.1098633,0.7080078,0.253418,0.9550781,0.5366211,0.9541016
	l0.3896484-0.0371094c0.53125-0.0039062,0.7075195-0.2167969,0.7041016-0.8554688l-0.0004883-0.1416016
	c-0.0400391-0.7802734-0.0786133-1.3818359-0.0805664-1.7368164c-0.003418-0.5668945,0.0649414-1.0629883,0.2041016-1.4892578
	c0.1049805-0.2832031,0.1748047-0.5317383,0.1738281-0.6738281c-0.0009766-0.1064453-0.0722656-0.2475586-0.1796875-0.3891602
	L46.328125,24.421875c-0.0717773-0.1064453-0.2133789-0.1767578-0.3198242-0.1757812
	c-0.1420898,0.0009766-0.4248047,0.1083984-0.7783203,0.2875977c-0.3530273,0.1791992-0.777832,0.2880859-1.2387695,0.2900391
	c-0.1767578,0.0009766-0.3544922-0.0332031-0.5317383-0.0673828l-1.4897461-0.2045898
	c-0.5322266-0.1035156-1.0639648-0.1352539-1.5249023-0.1328125c-1.9453125,0.0107422-3.527832,0.7080078-4.5175781,1.8603516
	c-0.3676758-0.9482422-1.5234375-1.71875-2.7255859-1.7119141c-1.0273438,0.0058594-2.1582031,0.6142578-3.0742188,1.6464844
	c-0.3168945,0.3212891-0.6337891,0.7119141-0.9858398,1.1396484l-0.0112305-2.0195312
	c-0.0014648-0.2832031-0.0024414-0.425293-0.0380859-0.4960938c-0.0004883-0.0708008-0.1074219-0.1767578-0.2138672-0.2119141
	c-0.0712891-0.034668-0.1420898-0.0341797-0.2128906-0.0336914L28.3818359,24.59375
	c-0.3540039,0.0019531-0.5307617,0.0737305-1.4487305,0.7880859c-0.953125,0.7138672-2.3676758,1.2172852-3.3598633,1.2231445
	l-0.2128906,0.0009766l-0.2128906,0.0009766c-0.1357422,0.0009766-0.2460938,0.0073242-0.3452148,0.0170898l-0.0229492-4.0854492
	c-0.0058594-1.0634766,0.2358398-2.234375,0.5517578-2.7314453c0.421875-0.6762695,0.6337891-0.7841797,2.262207-1.1469727
	c0.5664062-0.1098633,0.6015625-0.1806641,0.5986328-0.7119141l-0.0024414-0.4970703
	c-0.0024414-0.3891602-0.109375-0.4951172-0.4990234-0.4936523c-0.1064453,0.0009766-0.4960938,0.0385742-1.0273438,0.0771484
	c-0.6376953,0.0742188-1.6650391,0.1152344-2.9765625,0.1225586c-0.9921875,0.0058594-1.7719727,0.0097656-2.3037109-0.0581055
	l-1.8789062-0.0957031l-0.1064453,0.0004883c-0.3896484,0.0024414-0.4599609,0.1088867-0.4580078,0.4985352l0.0029297,0.5673828
	c0.0029297,0.4956055,0.2163086,0.6367188,0.9604492,0.6323242c0.8505859,0.03125,1.7744141,0.3798828,2.2021484,0.8383789
	c0.4633789,0.4936523,0.6816406,1.449707,0.6904297,3.0800781l0.0415039,7.4780273
	c0.0185547,3.3671875-0.3974609,5.0341797-1.5947266,6.4589844c-1.1269531,1.3525391-2.7880859,2.1064453-4.6665039,2.1171875
	c-1.9140625,0.0097656-3.6552734-0.7958984-4.6547852-2.1367188c-1.0712891-1.4121094-1.4707031-3.1816406-1.4882812-6.3710938
	L8.3896484,22.440918c-0.015625-2.8354492,0.4775391-3.4047852,3.0283203-3.5961914
	c0.637207-0.074707,0.6723633-0.1455078,0.6689453-0.7832031l-0.0029297-0.5322266
	c-0.0019531-0.3540039-0.1445312-0.4956055-0.4990234-0.4936523l-0.0708008,0.0004883l-1.7709961,0.1171875
	c-0.7089844,0.0390625-1.5947266,0.0791016-2.6933594,0.0849609c-2.1621094,0.012207-5.0332031-0.0424805-6.2739258-0.1425781
	l-0.1772461,0.0009766C0.1025391,17.0996094-0.003418,17.206543,0,17.8085938l0.0024414,0.3901367
	c0.0014648,0.3193359,0.3212891,0.5297852,0.9243164,0.6328125c1.2421875,0.2416992,1.8110352,0.5571289,2.1333008,1.2285156
	c0.2871094,0.6015625,0.4335938,1.4511719,0.4394531,2.5141602l0.0478516,8.6826172
	c0.0180664,3.2958984,0.8457031,5.453125,2.8759766,7.3564453c1.8886719,1.7607422,3.9833984,2.5302734,6.925293,2.5136719
	c3.1542969-0.0175781,5.5585938-1.0244141,7.2138672-2.9462891c1.6894531-2.0292969,2.2797852-4.2304688,2.2563477-8.4833984
	l-0.0083008-1.5380859c0.2094727,0.0488281,0.4892578,0.0976562,0.8427734,0.1464844
	c0.815918,0.1015625,1.3154297,0.7011719,1.3911133,1.5869141c0.0371094,0.3193359,0.0395508,0.7451172,0.0424805,1.2763672
	l0.0258789,4.6777344c0.0117188,2.0917969-0.4101562,2.7314453-2.109375,3.1308594
	c-0.4956055,0.1445312-0.6010742,0.2509766-0.5991211,0.640625l0.0024414,0.4257812
	c0.0024414,0.4248047,0.109375,0.5664062,0.605957,0.5634766l0.2832031-0.0009766
	c1.1689453-0.1484375,1.8774414-0.1875,3.3305664-0.1953125c1.0986328-0.0058594,2.5522461,0.0214844,3.4384766,0.0507812
	L31.625,40.5595703l0.2832031-0.0019531c0.6381836-0.0029297,0.8144531-0.1455078,0.8476562-0.5712891l0.0332031-0.4248047
	c-0.0029297-0.4609375-0.2163086-0.6367188-0.8193359-0.7402344c-1.3837891-0.2050781-1.9521484-0.4501953-2.2744141-1.0859375
	c-0.2866211-0.4951172-0.3583984-0.7421875-0.3657227-2.0175781l-0.0214844-3.9345703
	c-0.0136719-2.4814453,0.6171875-3.7607422,1.8222656-3.7666016c0.3896484-0.0029297,0.7807617,0.171875,1.0297852,0.4541016
	c0.0712891,0.0703125,0.25,0.2822266,0.5,0.6357422c0.3212891,0.3886719,0.6411133,0.5986328,0.8891602,0.5976562
	c0.3393555-0.0019531,0.7734375-0.2558594,1.2739258-0.7441406c-0.0136719,0.1601562-0.0224609,0.3222656-0.0214844,0.4873047
	c0.0078125,1.3466797,0.5454102,2.4775391,1.5419922,3.2509766c0.9257812,0.7402344,1.8491211,1.125,3.9438477,1.7158203
	c2.8398438,0.7988281,3.5512695,1.3271484,3.559082,2.6728516c0.0068359,1.2773438-1.0874023,2.0263672-2.9658203,2.0371094
	c-2.3745117,0.0136719-4.2607422-1.3232422-4.4833984-3.1640625c-0.1118164-0.9921875-0.2192383-1.2050781-0.6801758-1.2021484
	c-0.0351562,0.0009766-0.105957,0.0361328-0.1772461,0.0361328l-0.2827148,0.0722656
	c-0.4604492,0.109375-0.706543,0.4296875-0.7026367,1.0683594v0.1064453l0.152832,1.9482422
	c0.0371094,0.3535156-0.03125,0.7792969-0.1708984,1.2050781c-0.1743164,0.4257812-0.2441406,0.7460938-0.2426758,0.9589844
	c0.0009766,0.1777344,0.1083984,0.3886719,0.2866211,0.4941406l0.2490234,0.1757812
	c0.1064453,0.0703125,0.2133789,0.1054688,0.3198242,0.1044922c0.1411133-0.0009766,0.2827148-0.0722656,0.4238281-0.1796875
	l0.3530273-0.2851562c0.1411133-0.1064453,0.3178711-0.1787109,0.565918-0.1806641
	c0.1772461,0,0.3901367,0.0332031,0.6381836,0.0683594l1.2421875,0.2753906
	c0.9936523,0.2080078,1.9511719,0.3085938,2.659668,0.3046875c3.6152344-0.0195312,6.2958984-2.3027344,6.2788086-5.421875
	C47.3017578,33.8427734,46.5859375,32.5712891,45.1635742,31.7646484z M90.7890625,37.6982422l-2.6210938,0.0507812
	c-2.8710938,0.015625-4.1132812-0.3671875-4.1171875-1.2177734c-0.0039062-0.5322266,0.5957031-0.9609375,1.4824219-1.1074219
	l1.8046875-0.2929688c4.2138672-0.6621094,5.6484375-2.5595703,5.6318359-5.5009766
	c-0.0048828-0.8154297-0.0791016-2.2363281,0.5546875-2.2363281c0.6347656,0,1.9609375-0.3178711,2.1708984-0.9213867
	c0.1386719-0.4262695,0.2421875-0.9584961,0.2402344-1.3125c-0.0039062-0.6020508-0.2539062-0.9907227-0.6074219-0.9887695
	c-0.0996094,0.0004883-1.7558594,0.4135742-3.6679688,0.4072266c-1.484375-0.0053711-3.0146484-0.3154297-4.8076172-0.3959961
	c-3.8515625-0.171875-7.0693359,2.1132812-7.4326172,5.1225586c-1.2070312-3.0991211-4.2055664-5.0888672-8.0366211-5.0673828
	c-5.3867188,0.0302734-9.2661133,3.59375-9.2392578,8.4140625c0.0126953,2.3300781,0.894043,4.3222656,2.3745117,5.7539062
	c-0.9467773-0.4775391-1.9111328-1.2470703-2.637207-2.1308594l-4.9238281-5.9267578l1.9047852-1.7119141
	c1.5864258-1.4614258,2.5410156-1.9277344,4.5947266-2.1875c0.6030273-0.0742188,0.7788086-0.2519531,0.7758789-0.7485352
	l-0.0024414-0.3891602c-0.0019531-0.3901367-0.2509766-0.5654297-0.8178711-0.5625
	c-0.1416016,0.0009766-0.3188477,0.0371094-0.4604492,0.0380859c-1.4526367,0.1494141-2.7631836,0.2275391-3.8266602,0.2338867
	c-0.4960938,0.0024414-0.956543,0.0048828-1.3115234-0.0283203c-0.7089844-0.0668945-1.1699219-0.1000977-1.4536133-0.0986328
	C55.8999023,24.8955078,55.6884766,25.0742188,55.690918,25.5l0.0019531,0.4248047
	c0.0019531,0.3540039,0.2509766,0.5297852,0.7470703,0.5620117c0.7446289,0.0317383,1.0288086,0.2075195,1.03125,0.6333008
	c0.0024414,0.4248047-0.5253906,1.1015625-1.5834961,2.0292969c-0.7055664,0.5703125-1.1640625,0.9277344-2.2241211,1.5703125
	c-0.1762695,0.1074219-0.4589844,0.2861328-0.8476562,0.5019531l-0.0532227-9.6401367
	c-0.0161133-2.9418945,0.0498047-3.8286133,0.3276367-4.7514648c0.1054688-0.2485352,0.1396484-0.4614258,0.1391602-0.6030273
	c-0.0014648-0.2480469-0.1088867-0.3896484-0.3222656-0.4941406l-0.2485352-0.1401367
	c-0.1420898-0.0351562-0.2485352-0.0698242-0.3549805-0.0688477c-0.2124023,0.0009766-0.4248047,0.0727539-0.6010742,0.2514648
	l-0.7758789,0.7480469c-0.7753906,0.7480469-1.9067383,1.2509766-3.0053711,1.2929688l-1.3110352,0.0424805
	c-0.5317383,0.0029297-0.7788086,0.1816406-0.7768555,0.5356445l0.0024414,0.425293
	c0.0024414,0.425293,0.1806641,0.565918,0.9960938,0.7036133c1.0996094,0.1357422,1.5991211,0.6992188,1.7119141,1.8686523
	c0.0385742,0.6376953,0.0795898,1.559082,0.0864258,2.7998047l0.0629883,11.4116211
	c0.0102539,1.7724609-0.09375,2.2685547-0.4814453,2.6962891c-0.3168945,0.3203125-0.7412109,0.5-1.4140625,0.5742188
	c-0.7089844,0.0751953-0.8496094,0.2177734-0.847168,0.7148438l0.0019531,0.3535156
	c0.0019531,0.3554688,0.1801758,0.4951172,0.640625,0.4921875c0.3544922-0.0019531,0.8154297-0.0039062,1.4179688-0.0429688
	c1.1689453-0.0771484,1.9838867-0.1171875,2.3383789-0.1191406L52.9375,40.3642578
	c0.8505859,0.03125,1.3110352,0.0283203,1.3823242,0.0273438h0.1416016c0.3901367-0.0019531,0.5664062-0.1445312,0.5644531-0.5
	l-0.0029297-0.4960938c-0.0009766-0.2128906-0.1079102-0.3535156-0.2148438-0.4238281
	c-0.0712891-0.0703125-0.390625-0.1748047-0.9233398-0.3486328c-0.7099609-0.2089844-1.0327148-0.8798828-1.0400391-2.1210938
	l-0.0249023-4.5361328l4.1743164,5.0097656c0.4638672,0.5283203,0.7861328,1.09375,0.7871094,1.3417969
	c0.0019531,0.2841797-0.1396484,0.390625-0.5991211,0.5703125c-0.3891602,0.1445312-0.6005859,0.3925781-0.5991211,0.6777344
	l0.0019531,0.3183594c0.0024414,0.3896484,0.215332,0.4951172,0.7822266,0.4921875l0.1772461-0.0019531
	c0.3549805-0.0371094,1.0629883-0.0761719,2.1259766-0.1171875c0.5668945-0.0390625,0.9921875-0.0410156,1.2402344-0.0429688
	l0.3193359-0.0019531l3.1899414,0.1240234l0.7446289-0.0029297c0.7089844-0.0048828,0.8149414-0.0410156,0.8125-0.5019531
	l-0.0014648-0.3085938c1.3779297,0.8203125,3.0585938,1.2792969,4.9321289,1.2685547
	c5.2456055-0.0283203,9.1235352-3.5947266,9.0981445-8.3798828c-0.0009766-0.0849609-0.0097656-0.1669922-0.0136719-0.2509766
	c0.1699219,0.3115234,0.3613281,0.6123047,0.6015625,0.8818359c0.6054688,0.6699219,1.1738281,1.0566406,2.5253906,1.7226562
	c-1.2714844,0.9628906-1.6953125,1.2138672-3.78125,2.0410156c-0.1396484,0.4960938-0.1738281,0.7089844-0.1728516,1.0292969
	c0.0068359,1.2753906,0.7578125,2.2636719,2.2861328,2.9990234c-1.6972656,0.7890625-2.1914062,1.1103516-2.7548828,1.8232422
	c-0.3876953,0.4267578-0.5966797,0.9599609-0.59375,1.5273438c0.0126953,2.3740234,3.2822266,4.0576172,7.8193359,4.0322266
	c5.7050781-0.0322266,10.1904297-2.9628906,10.1699219-6.6484375C96.078125,39.1220703,94.1210938,37.6796875,90.7890625,37.6982422
	z M71.5004883,39.015625c-2.8359375,0.015625-5.0146484-3.1259766-5.0371094-7.2021484
	c-0.019043-3.4375,1.7045898-5.7871094,4.2563477-5.8012695c2.7998047-0.015625,5.0146484,3.1625977,5.0366211,7.2026367
	C75.7758789,36.6884766,74.0517578,39.0009766,71.5004883,39.015625z M86.5068359,25.7783203
	c1.8066406-0.0097656,3.1982422,1.7900391,3.2119141,4.09375c0.0117188,2.1621094-1.2558594,3.7285156-2.9921875,3.7382812
	c-1.8417969,0.0097656-3.1621094-1.6484375-3.1757812-4.0234375C83.5380859,27.3544922,84.7695312,25.7875977,86.5068359,25.7783203
	z M86.6210938,46.4052734c-2.7285156,0.015625-4.9335938-1.1425781-4.9414062-2.5957031
	c-0.0058594-1.0273438,0.5234375-1.5625,2.3613281-2.4228516c0.9931641,0.1005859,1.3837891,0.0986328,2.0566406,0.0947266
	l0.7089844-0.0039062l2.3730469-0.0839844l0.2480469-0.0009766c1.984375-0.0107422,2.9804688,0.5146484,2.9863281,1.578125
	C92.4238281,44.8134766,89.7753906,46.3876953,86.6210938,46.4052734z"/>
</svg>
